<?xml version="1.0" encoding="UTF-8"?>
<svg version="1.1" xmlns="http://www.w3.org/2000/svg" width="512" height="392">
<path d="M0 0 C1.187715 -0.00511093 2.37542999 -0.01022186 3.59913635 -0.01548767 C6.84513043 -0.02698153 10.09096561 -0.0294611 13.33697462 -0.02692437 C16.05299484 -0.02585158 18.76899173 -0.03074595 21.48500693 -0.03552979 C27.89643527 -0.04661043 34.30780501 -0.04707074 40.71923828 -0.04101562 C47.3187441 -0.0349784 53.91803658 -0.04728362 60.517506 -0.06858569 C66.19669967 -0.0862387 71.87582566 -0.09219718 77.55504572 -0.08894795 C80.94116879 -0.08714059 84.32713971 -0.08971605 87.71323776 -0.10366249 C91.49258532 -0.11601988 95.27144136 -0.10923859 99.05078125 -0.09765625 C100.16273361 -0.10529999 101.27468597 -0.11294373 102.42033386 -0.12081909 C108.91602031 -0.07689331 115.67190812 0.02065565 120.70882225 4.72657299 C123.80254458 8.32818993 125.27794282 10.73554062 125.28900623 15.40833664 C125.29346408 16.27946744 125.29792192 17.15059824 125.30251485 18.04812694 C125.30233049 19.01094561 125.30214613 19.97376428 125.30195618 20.96575928 C125.30563286 21.98412282 125.30930955 23.00248637 125.31309766 24.05170941 C125.32416819 27.48638224 125.32798403 30.92102486 125.33178711 34.35571289 C125.33804919 36.80929664 125.34469576 39.26287944 125.35169983 41.71646118 C125.37095229 49.09577105 125.38153174 56.4750729 125.39042762 63.85440052 C125.39480929 67.32836234 125.40017643 70.80232264 125.40541649 74.27628326 C125.42242998 85.82282062 125.43692436 97.36935703 125.44416523 108.915905 C125.44607517 111.91309358 125.44799549 114.91028215 125.44995117 117.9074707 C125.45043491 118.65241953 125.45091865 119.39736836 125.45141705 120.16489139 C125.45971812 132.2337632 125.48505575 144.30253591 125.51753185 156.37136444 C125.55059345 168.75865467 125.56861319 181.14589453 125.57180947 193.53322911 C125.57397546 200.48969112 125.58273688 207.44600864 125.60827065 214.40242767 C125.63223243 220.9457519 125.63580896 227.48886263 125.62550926 234.03223801 C125.62501232 236.43566375 125.63137907 238.83910204 125.64506531 241.24248886 C125.66268971 244.5205148 125.65572396 247.79759688 125.64253235 251.07562256 C125.65350159 252.02951834 125.66447084 252.98341413 125.67577249 253.96621585 C125.62111762 259.58120826 124.92765583 262.83316118 121.15478516 267.2746582 C116.82400868 271.1829199 113.8021058 272.39509913 108.02644348 272.42182922 C106.43470306 272.43256218 106.43470306 272.43256218 104.81080627 272.44351196 C103.06452187 272.44754532 103.06452187 272.44754532 101.28295898 272.45166016 C100.05666779 272.45823135 98.83037659 272.46480255 97.56692505 272.47157288 C93.49855303 272.49132372 89.43022046 272.50297515 85.36181641 272.51293945 C83.95939299 272.51698804 82.55696976 272.52110499 81.15454674 272.52528954 C74.5636385 272.54433905 67.97274143 272.55856922 61.38181096 272.5669015 C53.78399134 272.57666616 46.18646365 272.6029662 38.58874685 272.6434024 C32.71005125 272.6736113 26.8314391 272.68837498 20.95266742 272.69168252 C17.44458378 272.69402806 13.9368121 272.70292274 10.42881203 272.72814369 C6.51030883 272.75586058 2.59218626 272.75157865 -1.32641602 272.74462891 C-2.48048447 272.75743896 -3.63455292 272.77024902 -4.82359314 272.78344727 C-11.27579264 272.74178021 -16.54515371 272.21719001 -21.84521484 268.2746582 C-25.60848275 263.64294386 -26.96665337 259.87849682 -26.97664261 254.00979233 C-26.98048375 253.1602966 -26.9843249 252.31080087 -26.98828244 251.43556285 C-26.98741596 250.50717074 -26.98654948 249.57877862 -26.98565674 248.62225342 C-26.98862786 247.63217702 -26.99159898 246.64210063 -26.99466014 245.62202191 C-27.00335149 242.29496249 -27.00485576 238.96793903 -27.00634766 235.64086914 C-27.01097551 233.25920027 -27.01600013 230.87753213 -27.02139282 228.49586487 C-27.03452181 222.01849974 -27.04099948 215.5411415 -27.04540348 209.06376553 C-27.0481675 205.0179856 -27.05240515 200.97220806 -27.05690765 196.92642975 C-27.06909925 185.72123235 -27.0793987 174.51603686 -27.08278275 163.31083298 C-27.08300231 162.59385642 -27.08322188 161.87687987 -27.0834481 161.13817675 C-27.08366637 160.41950047 -27.08388465 159.70082418 -27.08410954 158.96036983 C-27.08455301 157.50409746 -27.08499957 156.0478251 -27.08544922 154.59155273 C-27.08567065 153.86919383 -27.08589208 153.14683493 -27.08612022 152.40258637 C-27.09006734 140.70057026 -27.10751922 128.99861645 -27.13080874 117.29662439 C-27.15453572 105.27764475 -27.16698521 93.25869636 -27.16815066 81.23969293 C-27.16906668 74.49337638 -27.17480045 67.74714102 -27.19297028 61.00084686 C-27.20943562 54.65448342 -27.21161382 48.30827407 -27.20283127 41.9618969 C-27.20206008 39.63349177 -27.20641434 37.30507842 -27.21628952 34.97669411 C-27.22898785 31.79594485 -27.22314331 28.61574305 -27.21270752 25.43499756 C-27.22076392 24.51552833 -27.22882033 23.59605911 -27.23712087 22.64872718 C-27.19082029 16.60683872 -26.65296942 10.54503293 -22.53488278 5.74842906 C-15.81071004 -0.28909044 -8.51962818 -0.01891277 0 0 Z M-6.84521484 55.2746582 C-7.29549163 58.75519769 -7.16929456 62.26832012 -7.15771484 65.7746582 C-7.17382812 66.75047852 -7.18994141 67.72629883 -7.20654297 68.73168945 C-7.2071875 69.66368164 -7.20783203 70.59567383 -7.20849609 71.5559082 C-7.21147705 72.41249023 -7.21445801 73.26907227 -7.2175293 74.15161133 C-7.09466553 74.8522168 -6.97180176 75.55282227 -6.84521484 76.2746582 C-3.71013994 78.36470814 -3.00814948 78.52518901 0.55749512 78.52862549 C1.45759811 78.53426514 2.35770111 78.53990479 3.28507996 78.54571533 C4.27011002 78.54166687 5.25514008 78.53761841 6.27001953 78.53344727 C7.82889641 78.53870422 7.82889641 78.53870422 9.41926575 78.54406738 C12.86242304 78.55288643 16.30537569 78.54703484 19.74853516 78.5402832 C22.13602742 78.5416298 24.52351942 78.54357029 26.91101074 78.54608154 C31.91791389 78.54903305 36.92474575 78.54473427 41.93164062 78.53540039 C48.35802637 78.52400591 54.78424508 78.53056523 61.21062469 78.54254532 C66.14159408 78.54976317 71.07252369 78.54747632 76.00349426 78.54228973 C78.37343872 78.54095303 80.74338675 78.54260166 83.11332703 78.54724884 C86.42216597 78.55231277 89.73073221 78.5446055 93.03955078 78.53344727 C94.51709587 78.53951996 94.51709587 78.53951996 96.02449036 78.54571533 C96.92459335 78.54007568 97.82469635 78.53443604 98.7520752 78.52862549 C99.53446815 78.52787144 100.31686111 78.52711739 101.12296295 78.52634048 C103.46723603 78.39006369 103.46723603 78.39006369 106.15478516 76.2746582 C106.61935932 74.08575034 106.61935932 74.08575034 106.55322266 71.5559082 C106.55708984 70.62391602 106.56095703 69.69192383 106.56494141 68.73168945 C106.55333984 67.75586914 106.54173828 66.78004883 106.52978516 65.7746582 C106.54138672 64.79883789 106.55298828 63.82301758 106.56494141 62.81762695 C106.56107422 61.88563477 106.55720703 60.95364258 106.55322266 59.9934082 C106.54814697 58.70853516 106.54814697 58.70853516 106.54296875 57.39770508 C106.41486816 56.69709961 106.28676758 55.99649414 106.15478516 55.2746582 C103.00893857 53.17742714 102.29081809 53.02410668 98.7073822 53.02069092 C97.79741989 53.01505127 96.88745758 53.00941162 95.94992065 53.00360107 C94.95396881 53.00764954 93.95801697 53.011698 92.93188477 53.01586914 C91.88127365 53.0123645 90.83066254 53.00885986 89.74821472 53.00524902 C86.26778602 52.99643042 82.78755976 53.00228098 79.30712891 53.0090332 C76.89482077 53.00768669 74.48251289 53.00574628 72.07020569 53.00323486 C67.01202819 53.00028351 61.95392126 53.00458205 56.89575195 53.01391602 C50.39976613 53.02531659 43.90394544 53.01874723 37.40796566 53.00677109 C32.42642463 52.99955804 27.44492301 53.00183776 22.46338081 53.00702667 C20.06749006 53.00836439 17.67159578 53.00671121 15.27570915 53.00206757 C11.9331394 52.99701082 8.5908405 53.0047004 5.24829102 53.01586914 C3.7513269 53.00979645 3.7513269 53.00979645 2.22412109 53.00360107 C1.31697861 53.00924072 0.40983612 53.01488037 -0.52479553 53.02069092 C-1.31548463 53.02144497 -2.10617373 53.02219902 -2.9208231 53.02297592 C-5.08391558 53.10706727 -5.08391558 53.10706727 -6.84521484 55.2746582 Z M36.40478516 211.1496582 C32.6360276 216.3840437 31.69129066 219.72494265 32.62744141 226.06762695 C33.85158466 231.19089315 36.71853636 234.20530247 40.90478516 237.1496582 C45.07319337 239.53491402 48.43620943 240.2458602 53.15478516 239.2746582 C58.50175369 237.58823028 62.24763917 234.95733267 65.24462891 230.19262695 C67.49270142 225.45527243 67.67827404 221.14860611 66.15478516 216.1496582 C64.27268249 211.731945 61.12514697 208.88246403 57.15478516 206.2746582 C49.14398238 203.60439061 42.2891646 204.99780697 36.40478516 211.1496582 Z " fill="#000000" transform="translate(386.84521484375,87.725341796875)"/>
<path d="M0 0 C1.09829285 -0.00570851 1.09829285 -0.00570851 2.21877342 -0.01153234 C4.68555268 -0.02188315 7.15210332 -0.01793556 9.61889839 -0.01409245 C11.39999051 -0.01854295 13.18108064 -0.02385637 14.96216786 -0.02996117 C19.86704185 -0.04417393 24.77185258 -0.04580384 29.67674422 -0.04536426 C34.96246836 -0.04700956 40.24816621 -0.0600706 45.53387642 -0.07155704 C57.09565678 -0.09442734 68.65741882 -0.10232965 80.21921873 -0.10738349 C87.43493836 -0.11063777 94.65065264 -0.11715856 101.86636925 -0.12438488 C121.83522241 -0.14395247 141.80407059 -0.16035608 161.77293396 -0.16326141 C163.05129216 -0.16344898 164.32965037 -0.16363655 165.6467467 -0.16382981 C168.23840658 -0.16419606 170.83006645 -0.16455976 173.42172633 -0.16492092 C175.35154254 -0.16519514 175.35154254 -0.16519514 177.32034492 -0.16547489 C178.60845464 -0.16565544 179.89656435 -0.16583599 181.22370769 -0.16602201 C202.1063267 -0.16956537 222.9888427 -0.1965972 243.87142597 -0.23397278 C265.29888225 -0.2720175 286.72628737 -0.2914186 308.1537782 -0.29172093 C320.18960578 -0.29230632 332.22531046 -0.30085098 344.26110649 -0.32971859 C354.50753941 -0.35418106 364.75380459 -0.36155006 375.00025879 -0.34647106 C380.23039086 -0.33928145 385.46019134 -0.34024783 390.69028664 -0.36288166 C395.47583297 -0.38339374 400.26079117 -0.38094435 405.04633059 -0.36000682 C406.77982345 -0.35649701 408.51335808 -0.36148463 410.24679612 -0.37571125 C412.59993073 -0.39378297 414.95097645 -0.38114892 417.30404663 -0.36076355 C418.61191348 -0.36157801 419.91978033 -0.36239246 421.26727951 -0.3632316 C426.29655585 0.52970131 429.00741851 2.96247884 432.14065742 7.02861691 C433.16971697 10.63229668 433.02047725 14.24902986 432.97317696 17.96318722 C432.96893211 19.21987209 432.96893211 19.21987209 432.96460152 20.50194454 C432.95342794 23.17146385 432.92832866 25.84064472 432.90286446 28.51006222 C432.892831 30.32255736 432.88370579 32.13505778 432.87552071 33.94756222 C432.85520141 38.38529675 432.81604786 42.8223017 432.77786446 47.26006222 C423.20786446 47.26006222 413.63786446 47.26006222 403.77786446 47.26006222 C403.52786446 40.07256222 403.52786446 40.07256222 403.48001289 37.8374548 C403.23620338 33.08637734 402.1828203 30.55938987 398.77786446 27.26006222 C395.47575786 26.15936002 393.0443223 26.13358585 389.56617355 26.13142776 C388.25701056 26.12820332 386.94784757 26.12497887 385.59901297 26.12165672 C384.13744066 26.123128 382.67586845 26.12469573 381.21429634 26.12634945 C379.66846994 26.12448232 378.122644 26.12218201 376.57681882 26.11948413 C372.31765439 26.11334757 368.05850953 26.11350189 363.79934168 26.1146785 C359.21029575 26.11488204 354.62125619 26.10936824 350.03221321 26.10462093 C341.0372244 26.09630368 332.04224214 26.09356561 323.04724981 26.09300856 C315.73805651 26.09253391 308.42886539 26.09048173 301.11967278 26.08730793 C280.41115129 26.07849846 259.70263499 26.07388902 238.99411161 26.0746384 C237.31844134 26.07469834 237.31844134 26.07469834 235.60891914 26.07475948 C234.49044666 26.07480036 233.37197418 26.07484124 232.21960859 26.07488336 C214.08779478 26.07528993 195.95600172 26.06571856 177.82419391 26.05162112 C159.22067916 26.03727069 140.61717454 26.0303502 122.01365411 26.03121489 C111.56352384 26.03154732 101.11341532 26.02878016 90.66329002 26.01803684 C81.76657036 26.00894936 72.86988233 26.00674212 63.97316004 26.01354627 C59.43185007 26.01682035 54.89060083 26.01683628 50.34929657 26.00819302 C46.19430106 26.00036616 42.03941483 26.00172014 37.88442211 26.01047715 C36.37904872 26.01202059 34.87366733 26.01016443 33.36830337 26.00461707 C31.32595906 25.99758773 29.28358155 26.00402742 27.24123764 26.01117325 C26.10560147 26.01095588 24.9699653 26.01073851 23.79991591 26.01051456 C20.69644934 26.26678512 18.52903515 26.81434068 15.77786446 28.26006222 C13.31336303 33.1147114 13.49341051 38.088341 13.51716805 43.40715694 C13.5133425 44.31868227 13.50951695 45.23020761 13.50557548 46.16935492 C13.49527065 49.21852984 13.49923285 52.26751558 13.50320625 55.31670284 C13.49885844 57.50487091 13.49367506 59.69303746 13.48771858 61.88120174 C13.47432612 67.82115967 13.47375011 73.76105398 13.47628188 79.70102406 C13.47735123 84.65899465 13.47246924 89.61695235 13.46767646 94.57492018 C13.45594645 106.93824577 13.4568069 119.30153997 13.46323327 131.66486746 C13.46840397 142.39813602 13.457142 153.13131386 13.43813505 163.86456448 C13.41875808 174.89145378 13.41079175 185.91829806 13.4142583 196.94520426 C13.41607281 203.13362927 13.413418 209.32197117 13.39954376 215.51038265 C13.38698831 221.32820154 13.38888797 227.14583849 13.40195465 232.96365452 C13.4043248 235.09939097 13.40157012 237.23514013 13.39333153 239.37086201 C13.3828998 242.28510945 13.39093613 245.19874233 13.40364265 248.11296749 C13.39626837 248.95907919 13.38889408 249.8051909 13.38129634 250.67694235 C13.42627777 255.57698612 13.94729106 259.07422007 16.77786446 263.26006222 C19.81631783 265.19306517 22.18645656 265.51244073 25.75224113 265.52177525 C26.75993986 265.52924074 27.76763858 265.53670623 28.80587363 265.54439795 C29.91092443 265.54246322 31.01597522 265.54052848 32.15451241 265.53853512 C33.32990963 265.54432752 34.50530686 265.55011992 35.71632218 265.55608785 C38.97956961 265.57016631 42.24269193 265.57531932 45.50596499 265.57673645 C49.02469829 265.58042795 52.54338424 265.59558217 56.06208992 265.60935116 C62.15872643 265.63163568 68.25534611 265.64664178 74.35201454 265.65671825 C83.16679032 265.67129767 91.98150751 265.6968324 100.79624894 265.72504954 C115.09723418 265.77053096 129.39822785 265.80714018 143.69925117 265.83818722 C157.59216988 265.86836723 171.48506796 265.90271498 185.37796211 265.94267941 C186.23417895 265.94514095 187.09039579 265.9476025 187.97255859 265.95013864 C192.2679047 265.96251314 196.56325057 265.97496969 200.85859632 265.98746705 C236.49832801 266.09105507 272.13807393 266.17862027 307.77786446 266.26006222 C307.77786446 284.41006222 307.77786446 302.56006222 307.77786446 321.26006222 C267.75087497 321.35046032 227.72391229 321.42208585 187.69684129 321.46432354 C182.97287228 321.46932645 178.24890347 321.47450373 173.52493477 321.47978878 C172.11423008 321.48136264 172.11423008 321.48136264 170.67502631 321.4829683 C155.44067809 321.50038057 140.20639015 321.53192278 124.97207771 321.5686734 C109.343981 321.60605995 93.7159159 321.62829323 78.0877763 321.6364162 C68.44187639 321.64190872 58.79614686 321.65926556 49.15029939 321.69172809 C42.53864342 321.71284776 35.92707574 321.71926805 29.31538849 321.71406773 C25.49892607 321.71150196 21.6827617 321.71547591 17.86635208 321.73688412 C13.73004216 321.7599176 9.59436903 321.7520268 5.45800972 321.74108028 C4.24983806 321.75273165 3.04166639 321.76438302 1.79688346 321.77638745 C-4.45542165 321.73149577 -8.58530261 321.67314438 -13.22213554 317.26006222 C-15.18414233 314.11424612 -15.4737826 311.69945142 -15.47940445 308.02133274 C-15.48585334 306.95463309 -15.49230223 305.88793344 -15.49894655 304.78890955 C-15.49584934 303.61791441 -15.49275214 302.44691926 -15.48956108 301.24043941 C-15.49409219 299.99577164 -15.49862331 298.75110387 -15.50329173 297.46871889 C-15.51377636 294.01179113 -15.51525913 290.55507111 -15.51290298 287.09814215 C-15.51249527 283.37071295 -15.52352946 279.64331494 -15.53301811 275.91590023 C-15.54963899 268.61250443 -15.55512814 261.30914091 -15.55624287 254.00572778 C-15.55719279 248.07003794 -15.56130031 242.13435876 -15.56764412 236.19867229 C-15.58525923 219.37474729 -15.59448253 202.55084782 -15.59298317 185.72691353 C-15.59290326 184.81971783 -15.59282335 183.91252213 -15.59274101 182.97783566 C-15.59265925 182.06953402 -15.59257749 181.16123238 -15.59249325 180.22540645 C-15.5916802 165.50215619 -15.61082204 150.7790082 -15.63901775 136.05578752 C-15.66773174 120.94283876 -15.68155887 105.82993991 -15.67983019 90.71696317 C-15.67916579 82.23024419 -15.68467993 73.74363242 -15.70618629 65.25693798 C-15.72437856 58.03165483 -15.72876157 50.80652749 -15.71516745 43.58123137 C-15.70862792 39.89436603 -15.70855567 36.20779978 -15.72587395 32.52096272 C-15.74445152 28.52496512 -15.73207608 24.52966294 -15.71661186 20.53365231 C-15.72689899 19.3671186 -15.73718611 18.2005849 -15.74778497 16.99870169 C-15.69481089 10.82494141 -15.544908 6.85322601 -11.22213554 2.26006222 C-7.60226601 -0.16657451 -4.27876724 0.00638415 0 0 Z M196.77786446 282.26006222 C193.03939975 287.05296569 192.12443063 290.83591084 192.39114571 296.89678097 C193.17998519 301.71746671 195.82959959 304.404311 199.34036446 307.57256222 C203.48823915 310.44416778 206.81967602 310.66647111 211.77786446 310.26006222 C217.5943474 308.36102394 220.85569527 305.75374029 223.77786446 300.26006222 C225.33204065 295.59753364 225.32235248 291.77252894 223.65286446 287.13506222 C221.08465369 283.19713904 218.03561281 280.38893639 213.77786446 278.26006222 C206.9593132 277.49967533 202.23208408 278.00577091 196.77786446 282.26006222 Z " fill="#000000" transform="translate(15.222135543823242,-0.26006221771240234)"/>
<path d="M0 0 C39.27 0 78.54 0 119 0 C120.98 9.9 120.98 9.9 123 20 C128.63808178 33.80754721 136.59549073 43.73677557 149.19921875 51.79296875 C149.79347656 52.19128906 150.38773438 52.58960938 151 53 C151 53.33 151 53.66 151 54 C92.59 54 34.18 54 -26 54 C-21 49 -21 49 -18.7890625 46.96484375 C-4.56863589 33.64281954 -1.57253609 18.87043306 0 0 Z " fill="#000000" transform="translate(164,338)"/>
<path d="M0 0 C4.29 0 8.58 0 13 0 C13 2.64 13 5.28 13 8 C8.71 8 4.42 8 0 8 C0 5.36 0 2.72 0 0 Z " fill="#000000" transform="translate(476,156)"/>
</svg>
