<?xml version="1.0" standalone="no"?>
<!DOCTYPE svg PUBLIC "-//W3C//DTD SVG 20010904//EN"
 "http://www.w3.org/TR/2001/REC-SVG-20010904/DTD/svg10.dtd">
<svg version="1.0" xmlns="http://www.w3.org/2000/svg"
 width="500.000000pt" height="500.000000pt" viewBox="0 0 500.000000 500.000000"
 preserveAspectRatio="xMidYMid meet">

<g transform="translate(0.000000,500.000000) scale(0.100000,-0.100000)"
fill="#000000" stroke="none">
<path d="M2445 3338 c-35 -12 -426 -162 -630 -241 -233 -90 -295 -118 -305
-137 -6 -10 -10 -66 -10 -123 0 -113 2 -118 64 -149 l29 -15 -44 -24 -44 -24
0 -120 0 -120 32 -20 c18 -11 32 -22 32 -25 0 -3 -14 -14 -32 -25 l-32 -20 -3
-100 c-2 -55 0 -110 3 -122 7 -29 48 -50 323 -165 119 -49 287 -120 372 -155
85 -36 178 -75 205 -85 77 -30 129 -22 275 46 69 32 222 100 340 151 364 157
426 186 454 211 26 25 27 27 24 137 l-3 111 -38 22 -39 21 35 22 c19 12 38 28
41 37 8 21 8 198 0 219 -4 9 -25 25 -46 34 l-39 16 45 32 46 33 0 108 c0 71
-4 114 -12 125 -12 14 -234 104 -728 293 -139 53 -175 63 -225 63 -33 0 -73
-5 -90 -11z m6 -114 c64 -26 64 -26 119 -9 30 10 61 20 68 23 10 4 10 -4 -2
-33 -9 -21 -16 -41 -16 -46 0 -4 28 -18 63 -31 l62 -23 -55 -8 c-30 -5 -69
-10 -86 -13 -27 -4 -35 -12 -51 -51 l-19 -47 -33 57 c-32 56 -33 57 -79 58
-26 0 -69 4 -97 8 -47 7 -49 8 -24 18 14 6 44 17 67 24 45 13 49 21 27 59 -14
24 -18 40 -12 40 2 0 32 -12 68 -26z m-236 -188 c95 -25 130 -65 94 -110 -32
-41 -109 -61 -234 -61 -120 1 -169 12 -215 52 -53 44 -32 82 62 114 65 22 219
25 293 5z m445 -182 c0 -14 -133 -194 -143 -194 -18 0 -308 122 -303 127 4 4
389 68 434 72 6 0 12 -2 12 -5z"/>
<path d="M2252 1493 l1 -78 6 65 6 65 21 -59 c11 -33 25 -61 31 -63 5 -2 21
25 34 59 l24 63 6 -65 6 -65 1 78 c2 60 -1 77 -12 77 -8 0 -17 -12 -21 -27 -3
-15 -13 -43 -22 -62 l-15 -36 -21 59 c-32 88 -47 85 -45 -11z"/>
<path d="M2662 1539 c-7 -10 -8 -19 -3 -19 6 0 11 -21 13 -47 3 -41 6 -48 26
-51 12 -2 22 1 22 6 0 5 -8 9 -17 8 -14 -1 -19 8 -21 42 -3 38 -1 42 20 43 15
0 18 3 8 6 -8 3 -20 11 -26 18 -8 11 -12 10 -22 -6z"/>
<path d="M2444 1525 c-18 -14 -17 -14 12 -9 46 9 52 -13 9 -30 -29 -12 -36
-20 -33 -38 3 -20 9 -23 52 -25 36 -1 46 1 37 10 -6 6 -11 30 -11 53 0 29 -5
44 -16 48 -23 9 -28 8 -50 -9z m56 -58 c0 -16 -20 -37 -36 -37 -23 0 -24 30
-1 40 31 12 37 12 37 -3z"/>
<path d="M2563 1533 c-25 -9 -14 -44 17 -56 17 -6 30 -17 30 -25 0 -19 -28
-26 -47 -11 -14 12 -16 12 -11 -1 3 -9 17 -15 39 -15 28 0 35 4 37 23 3 18 -4
26 -33 38 -39 16 -38 39 1 31 27 -5 33 8 8 17 -18 7 -23 7 -41 -1z"/>
<path d="M2760 1520 c-37 -37 -19 -100 29 -100 16 0 34 7 41 15 15 18 7 19
-19 3 -15 -9 -23 -9 -35 1 -26 22 -19 31 24 31 33 0 40 3 40 19 0 23 -25 51
-46 51 -8 0 -23 -9 -34 -20z m58 -17 c2 -9 -7 -13 -27 -13 -30 0 -39 9 -24 24
11 10 46 3 51 -11z"/>
<path d="M2893 1533 c-21 -4 -23 -10 -23 -59 0 -30 5 -54 10 -54 6 0 10 21 10
46 0 37 4 47 20 51 18 5 30 25 13 22 -5 -1 -18 -4 -30 -6z"/>
</g>
</svg>
