<?xml version="1.0" standalone="no"?>
<!DOCTYPE svg PUBLIC "-//W3C//DTD SVG 20010904//EN"
 "http://www.w3.org/TR/2001/REC-SVG-20010904/DTD/svg10.dtd">
<svg version="1.0" xmlns="http://www.w3.org/2000/svg"
 width="500.000000pt" height="500.000000pt" viewBox="0 0 500.000000 500.000000"
 preserveAspectRatio="xMidYMid meet">

<g transform="translate(0.000000,500.000000) scale(0.100000,-0.100000)"
fill="#000000" stroke="none">
<path d="M2445 3338 c-35 -12 -426 -162 -630 -241 -233 -90 -295 -118 -305
-137 -6 -10 -10 -66 -10 -123 0 -113 2 -118 64 -149 l29 -15 -44 -24 -44 -24
0 -120 0 -120 32 -20 c18 -11 32 -22 32 -25 0 -3 -14 -14 -32 -25 l-32 -20 -3
-100 c-2 -55 0 -110 3 -122 7 -29 48 -50 323 -165 119 -49 287 -120 372 -155
85 -36 178 -75 205 -85 77 -30 129 -22 275 46 69 32 222 100 340 151 364 157
426 186 454 211 26 25 27 27 24 137 l-3 111 -38 22 -39 21 35 22 c19 12 38 28
41 37 8 21 8 198 0 219 -4 9 -25 25 -46 34 l-39 16 45 32 46 33 0 108 c0 71
-4 114 -12 125 -12 14 -234 104 -728 293 -139 53 -175 63 -225 63 -33 0 -73
-5 -90 -11z m6 -114 c64 -26 64 -26 119 -9 30 10 61 20 68 23 10 4 10 -4 -2
-33 -9 -21 -16 -41 -16 -46 0 -4 28 -18 63 -31 l62 -23 -55 -8 c-30 -5 -69
-10 -86 -13 -27 -4 -35 -12 -51 -51 l-19 -47 -33 57 c-32 56 -33 57 -79 58
-26 0 -69 4 -97 8 -47 7 -49 8 -24 18 14 6 44 17 67 24 45 13 49 21 27 59 -14
24 -18 40 -12 40 2 0 32 -12 68 -26z m-236 -188 c95 -25 130 -65 94 -110 -32
-41 -109 -61 -234 -61 -120 1 -169 12 -215 52 -53 44 -32 82 62 114 65 22 219
25 293 5z m445 -182 c0 -14 -133 -194 -143 -194 -18 0 -308 122 -303 127 4 4
389 68 434 72 6 0 12 -2 12 -5z"/>
<path d="M2622 1503 c3 -69 5 -78 23 -80 11 -2 14 0 8 3 -9 4 -13 30 -13 80 0
45 -4 74 -10 74 -7 0 -10 -29 -8 -77z"/>
<path d="M2680 1570 c0 -5 5 -10 10 -10 6 0 10 5 10 10 0 6 -4 10 -10 10 -5 0
-10 -4 -10 -10z"/>
<path d="M2232 1493 c1 -43 3 -61 5 -40 4 35 7 38 31 35 20 -2 29 -11 36 -35
5 -18 13 -33 17 -33 12 0 11 5 -5 45 -8 19 -11 35 -7 35 15 0 21 31 11 51 -8
14 -21 19 -50 19 l-40 0 2 -77z m68 52 c10 -12 10 -18 0 -30 -27 -32 -71 -8
-56 30 3 8 14 15 24 15 11 0 25 -7 32 -15z"/>
<path d="M2376 1524 c-20 -19 -21 -78 -2 -93 19 -16 68 -10 74 7 3 11 0 12
-16 3 -23 -12 -48 -6 -56 15 -4 11 4 14 34 14 36 0 40 3 40 25 0 14 -8 29 -19
35 -27 14 -37 13 -55 -6z m58 -19 c4 -12 -3 -15 -31 -15 -30 0 -34 2 -23 15 7
8 20 15 30 15 10 0 20 -7 24 -15z"/>
<path d="M2520 1531 c-8 -6 -18 -7 -22 -5 -4 3 -7 -32 -6 -78 0 -46 3 -69 5
-51 4 30 6 32 35 26 23 -5 34 -2 45 12 19 27 16 62 -7 85 -22 22 -29 24 -50
11z m48 -47 c5 -55 -51 -71 -64 -18 -8 30 12 56 40 52 15 -2 22 -11 24 -34z"/>
<path d="M2756 1524 c-19 -18 -21 -75 -4 -92 15 -15 64 -16 73 -1 10 16 -3 23
-18 10 -32 -26 -68 20 -47 60 10 17 18 20 43 15 30 -5 31 -5 13 9 -25 19 -41
19 -60 -1z"/>
<path d="M2873 1533 c-25 -10 -12 -22 17 -16 23 4 30 2 30 -11 0 -9 -8 -16
-18 -16 -31 0 -55 -24 -48 -48 6 -18 14 -21 49 -20 l42 2 -3 46 c-5 57 -29 80
-69 63z m45 -75 c-2 -15 -10 -23 -23 -23 -25 0 -32 32 -8 38 32 8 34 7 31 -15z"/>
<path d="M2693 1475 c0 -33 2 -45 4 -27 2 18 2 45 0 60 -2 15 -4 0 -4 -33z"/>
</g>
</svg>
